<svg width="1120" height="260" viewBox="0 0 1120 260" fill="none" xmlns="http://www.w3.org/2000/svg">
<path fill-rule="evenodd" clip-rule="evenodd" d="M795.034 72.3161C795.216 59.9151 796.468 46.4669 801.947 35.8787C804.858 30.2528 808.915 25.5453 814.668 22.1825C820.455 18.8003 828.474 16.4789 839.75 16.4789C851.177 16.4789 859.28 18.5822 865.092 21.7016C870.824 24.7778 874.789 29.086 877.62 34.3333C883.097 44.4847 884.32 58.0189 884.474 72.4403C877.84 73.4675 872.43 75.9189 868.242 79.7944C862.691 84.9211 859.915 92.0986 859.915 101.327V159.772C859.915 169 862.691 176.251 868.242 181.524C873.94 186.651 881.902 189.214 892.129 189.214C902.355 189.214 910.244 186.651 915.796 181.524C921.494 176.251 924.342 169 924.342 159.772V101.327C924.342 92.0986 921.494 84.9211 915.796 79.7944C911.955 76.1456 906.994 73.7591 900.914 72.6351C900.789 57.8479 899.64 40.5127 892.076 26.4927C887.873 18.7034 881.702 11.9247 872.849 7.17332C864.076 2.46509 853.147 0 839.75 0C826.202 0 815.189 2.80408 806.391 7.94591C797.56 13.1072 791.481 20.3222 787.358 28.2901C779.934 42.6377 778.731 59.7347 778.589 72.802C772.863 73.9863 768.121 76.3171 764.364 79.7944C758.812 84.9211 756.037 92.0986 756.037 101.327V159.772C756.037 169 758.812 176.251 764.364 181.524C770.062 186.651 778.024 189.214 788.25 189.214C798.477 189.214 806.366 186.651 811.918 181.524C817.615 176.251 820.464 169 820.464 159.772V101.327C820.464 92.0986 817.615 84.9211 811.918 79.7944C807.663 75.7529 802.035 73.2602 795.034 72.3161ZM41.856 187.676C28.5615 187.676 18.2618 184.307 10.9571 177.569C3.65236 170.831 0 160.944 0 147.907V73.4225C0 60.5324 3.94455 50.7183 11.8336 43.9803C19.7227 37.2423 30.4607 33.8732 44.0475 33.8732H76.2613V48.5944H41.856C35.1357 48.5944 29.6572 50.5718 25.4204 54.5268C21.3298 58.3352 19.2845 63.462 19.2845 69.9071V151.862C19.2845 158.454 21.2567 163.654 25.2013 167.462C29.1458 171.27 34.4052 173.175 40.9795 173.175H61.3596V112.752H41.6369V98.2507H80.6441V187.676H41.856ZM149.879 187.676C144.62 187.676 139.726 186.358 135.197 183.721C130.814 181.085 127.308 177.496 124.678 172.955C122.194 168.414 120.952 163.287 120.952 157.575V146.149C120.952 139.265 122.633 133.479 125.993 128.792C129.499 124.104 133.809 120.808 138.922 118.904L166.096 108.797V98.4704C166.096 94.9549 165 92.0986 162.808 89.9014C160.763 87.5578 158.06 86.3859 154.7 86.3859H129.937V73.4225H156.234C164.269 73.4225 170.625 75.8394 175.3 80.6733C180.121 85.3606 182.531 91.8056 182.531 100.008V187.676H149.879ZM166.096 174.273V122.639L146.811 129.89C143.013 131.355 140.31 133.332 138.703 135.823C137.242 138.313 136.511 142.268 136.511 147.687V159.992C136.511 163.946 137.972 167.316 140.894 170.099C143.816 172.882 147.322 174.273 151.413 174.273H166.096ZM346.317 179.547C352.014 184.966 359.465 187.676 368.669 187.676H402.636V33.8732H385.105V67.7099L355.74 78.0366C350.626 79.6479 346.317 82.6507 342.81 87.0451C339.45 91.4394 337.77 96.7859 337.77 103.085V157.794C337.77 166.876 340.619 174.127 346.317 179.547ZM385.105 82.2113V174.493H372.395C367.135 174.493 362.971 173.028 359.903 170.099C356.835 167.169 355.301 163.068 355.301 157.794V106.6C355.301 101.034 356.032 97.0056 357.493 94.5155C359.1 91.8789 361.803 89.9747 365.601 88.8028L385.105 82.2113ZM450.897 73.4225V187.676H468.428V73.4225H450.897ZM544.513 189.214C534.286 189.214 526.324 186.651 520.627 181.524C515.075 176.251 512.299 169 512.299 159.772V101.327C512.299 92.0986 515.075 84.9211 520.627 79.7944C526.324 74.5211 534.286 71.8845 544.513 71.8845C554.74 71.8845 562.629 74.5211 568.18 79.7944C573.878 84.9211 576.727 92.0986 576.727 101.327V159.772C576.727 169 573.878 176.251 568.18 181.524C562.629 186.651 554.74 189.214 544.513 189.214ZM544.513 175.592C549.188 175.592 552.841 174.273 555.47 171.637C558.246 168.854 559.634 164.899 559.634 159.772V101.327C559.634 96.2 558.246 92.3183 555.47 89.6817C552.841 86.8986 549.188 85.5071 544.513 85.5071C539.838 85.5071 536.113 86.8986 533.337 89.6817C530.707 92.3183 529.392 96.2 529.392 101.327V159.772C529.392 164.899 530.707 168.854 533.337 171.637C536.113 174.273 539.838 175.592 544.513 175.592ZM469.036 45.7747L450.774 33.8732V57.6761L469.036 45.7747ZM230.099 72.6973L230.099 72.9164V152.289C230.099 163.955 232.852 173.12 238.36 179.786C242.722 184.787 248.422 187.859 255.459 189C254.853 189.295 254.186 189.615 253.447 189.961C243.45 195.71 238.884 202.909 239.25 212.344C239.528 219.525 248.54 240.774 257.768 256.007C260.951 261.261 261.272 261.279 264.289 256.363C273.086 242.028 282.442 220.266 282.991 212.862C283.682 203.544 279.023 195.901 269.145 190.146C268.537 189.792 267.979 189.468 267.464 189.172C275.027 188.193 281.051 185.064 285.536 179.786C291.189 173.12 294.015 163.955 294.015 152.289V72.9164C294.015 72.8681 294.015 72.8198 294.015 72.7716C294.015 72.7278 294.014 72.684 294.014 72.6403C294.014 72.5346 294.013 72.4292 294.012 72.324H277.052C277.056 72.5199 277.058 72.7174 277.058 72.9164V152.289C277.058 158.77 275.681 163.769 272.927 167.288C270.318 170.62 266.695 172.287 262.057 172.287C257.419 172.287 253.723 170.62 250.969 167.288C248.36 163.769 247.056 158.77 247.056 152.289V72.9164C247.056 72.7174 247.058 72.5199 247.061 72.324H230.102C230.1 72.4481 230.1 72.5725 230.099 72.6973ZM634.779 33.8732H672.033C685.62 33.8732 695.774 37.0225 702.494 43.3211C709.214 49.4733 712.575 59.2141 712.575 72.5437C712.575 79.8676 711.187 86.6056 708.411 92.7578C705.781 98.7634 702.421 103.158 698.33 105.941C704.028 109.017 708.703 113.631 712.356 119.783C716.154 125.935 718.053 132.966 718.053 140.876C718.053 154.352 714.693 165.558 707.973 174.493C701.398 183.282 688.323 187.676 668.746 187.676H634.779V33.8732ZM667.87 98.2507C676.635 98.2507 683.429 96.0535 688.25 91.6592C693.071 87.1183 695.482 80.6 695.482 72.1042C695.482 63.7549 693.144 57.7493 688.469 54.0873C683.794 50.2789 676.928 48.3747 667.87 48.3747H654.064V98.2507H667.87ZM667.651 173.175C678.315 173.175 686.278 170.685 691.537 165.704C696.943 160.577 699.645 152.521 699.645 141.535C699.645 131.721 696.504 124.544 690.222 120.003C683.94 115.462 676.489 113.192 667.87 113.192H654.064V173.175H667.651ZM788.25 175.592C792.925 175.592 796.578 174.273 799.207 171.637C801.983 168.854 803.371 164.899 803.371 159.772V101.327C803.371 96.2 801.983 92.3183 799.207 89.6817C796.578 86.8986 792.925 85.5071 788.25 85.5071C783.575 85.5071 779.85 86.8986 777.074 89.6817C774.444 92.3183 773.13 96.2 773.13 101.327V159.772C773.13 164.899 774.444 168.854 777.074 171.637C779.85 174.273 783.575 175.592 788.25 175.592ZM903.086 171.637C900.456 174.273 896.804 175.592 892.129 175.592C887.454 175.592 883.728 174.273 880.952 171.637C878.323 168.854 877.008 164.899 877.008 159.772V101.327C877.008 96.2 878.323 92.3183 880.952 89.6817C883.728 86.8986 887.454 85.5071 892.129 85.5071C896.804 85.5071 900.456 86.8986 903.086 89.6817C905.862 92.3183 907.249 96.2 907.249 101.327V159.772C907.249 164.899 905.862 168.854 903.086 171.637ZM967.738 187.676V33.8732H985.269V120.003L1019.24 73.4225H1035.67L1003.24 120.003L1037.21 187.676H1020.77L992.939 130.11L985.269 140.437V187.676H967.738ZM1086.03 174.493H1067.41V187.676H1088.66C1098.6 187.676 1106.27 185.113 1111.67 179.986C1117.22 174.859 1120 167.096 1120 156.696C1120 150.837 1118.98 145.783 1116.93 141.535C1114.89 137.141 1112.4 133.552 1109.48 130.769C1106.56 127.839 1102.83 124.617 1098.3 121.101C1093.34 117.293 1089.69 113.997 1087.35 111.214C1085.01 108.431 1083.84 105.135 1083.84 101.327C1083.84 91.5127 1089.03 86.6056 1099.4 86.6056H1115.18V73.4225H1096.11C1087.35 73.4225 1080.34 75.9859 1075.08 81.1127C1069.96 86.093 1067.41 92.4648 1067.41 100.228C1067.41 105.501 1068.36 110.189 1070.25 114.29C1072.3 118.245 1074.64 121.614 1077.27 124.397C1080.04 127.034 1083.7 130.183 1088.22 133.845C1093.48 137.947 1097.43 141.535 1100.06 144.611C1102.69 147.687 1104 151.423 1104 155.817C1104 161.383 1102.54 165.924 1099.62 169.439C1096.84 172.808 1092.31 174.493 1086.03 174.493Z" fill="#815854"/>
</svg>
